<svg xmlns="http://www.w3.org/2000/svg" width="1920" height="1080" viewBox="0 0 1920 1080">
  <defs>
    <marker id="arrow" markerWidth="8" markerHeight="8" refX="7" refY="4" orient="auto"><path d="M0,0 L8,4 L0,8 Z" fill="#4a4a4a"/></marker>
    <style>
      .box { fill: #fff; stroke: #d9d9d9; stroke-width: 1; }
      .line { fill: none; stroke: #4a4a4a; stroke-width: 1; marker-end: url(#arrow); }
      .t { font-family: Arial, Helvetica, sans-serif; font-size: 16px; fill: #111; text-anchor: middle; }
    </style>
  </defs>
  <rect width="1920" height="1080" fill="#f7f7f7"/>

  <g transform="translate(0 360) scale(1.612)">

  <path class="line" d="M184 95 H234"/>
  <path class="line" d="M442 95 H492"/>
  <path class="line" d="M665 62 C691 49, 706 39, 734 40"/>
  <path class="line" d="M665 128 C699 147, 731 149, 769 149"/>
  <path class="line" d="M902 125 C951 102, 994 95, 1036 95"/>
  <path class="line" d="M902 174 C932 188, 960 203, 997 203"/>

  <rect class="box" x="7" y="61" width="177" height="67"/>
  <text class="t" x="95.5" y="93"><tspan x="95.5">Creator / brand</tspan><tspan x="95.5" dy="18">creates an artifact</tspan></text>

  <rect class="box" x="234" y="70" width="208" height="49"/>
  <text class="t" x="338" y="102">Nextbound API + database</text>

  <rect class="box" x="492" y="61" width="193" height="67"/>
  <text class="t" x="588.5" y="93"><tspan x="588.5">Experience engine</tspan><tspan x="588.5" dy="18">rules + LLM</tspan></text>

  <rect class="box" x="734" y="7" width="214" height="67"/>
  <text class="t" x="841" y="39"><tspan x="841">Web front end</tspan><tspan x="841" dy="18">spot demo version</tspan></text>

  <rect class="box" x="769" y="124" width="145" height="50"/>
  <text class="t" x="841.5" y="155">MCP server</text>

  <rect class="box" x="1036" y="70" width="107" height="49"/>
  <text class="t" x="1089.5" y="102">Codex</text>

  <rect class="box" x="997" y="169" width="186" height="67"/>
  <text class="t" x="1090" y="201"><tspan x="1090">ChatGPT App</tspan><tspan x="1090" dy="18">+ built-in UI</tspan></text>
  </g>
</svg>
